<?xml version="1.0" encoding="UTF-8" standalone="no"?>
<!-- Created with Inkscape (http://www.inkscape.org/) -->

<svg
   version="1.1"
   id="svg342"
   width="24"
   height="24"
   viewbox="0 0 24 24"
   sodipodidocname="eye.svg"
   inkscapeversion="1.2.1 (9c6d41e410, 2022-07-14)"
   xmlnsinkscape="http://www.inkscape.org/namespaces/inkscape"
   xmlnssodipodi="http://sodipodi.sourceforge.net/DTD/sodipodi-0.dtd"
   xmlns="http://www.w3.org/2000/svg"
   xmlnssvg="http://www.w3.org/2000/svg">
  <defs
     id="defs346" />
  <sodipodinamedview
     id="namedview344"
     pagecolor="#ffffff"
     bordercolor="#000000"
     borderopacity="0.25"
     inkscapeshowpageshadow="2"
     inkscapepageopacity="0.0"
     inkscapepagecheckerboard="0"
     inkscapedeskcolor="#d1d1d1"
     showgrid="false"
     showguides="true"
     inkscapezoom="10.872745"
     inkscapecx="19.03843"
     inkscapecy="22.349462"
     inkscapewindow-width="1920"
     inkscapewindow-height="1017"
     inkscapewindow-x="-8"
     inkscapewindow-y="-8"
     inkscapewindow-maximized="1"
     inkscapecurrent-layer="g348">
    <sodipodiguide
       position="-15.205325,-185.72863"
       orientation="0,-1"
       id="guide474"
       inkscapelocked="false" />
  </sodipodinamedview>
  <g
     inkscapegroupmode="layer"
     inkscapelabel="Image"
     id="g348">
    <path
       style="fill:#2c3333;fill-opacity:1;stroke:none;stroke-width:0.793233"
       d="M 11.240722,4.1755833 C 3.9870117,4.5638933 0.59708173,11.957723 0.59708173,11.957723 c 0,0 4.41494997,8.12113 12.33295027,7.69728 7.40876,-0.39664 10.61223,-7.72759 10.61223,-7.72759 0,0 -4.52963,-8.1678897 -12.30154,-7.7518297 m 0.84466,3.0378198 c 6.89269,0 6.89269,9.4037199 0,9.4037199 -6.8926603,0 -6.8926903,-9.4037199 0,-9.4037199 m -1.42079,2.5314 c -3.1742,1.6163099 -0.33271,5.9572399 2.84157,4.3409299 3.1742,-1.6163 0.33271,-5.9572199 -2.84157,-4.3409299 z"
       id="path352"
       sodipodinodetypes="ccccccscccc" />
    <path
       style="fill:#2c3333;fill-opacity:1;stroke-width:0.0565218"
       d="m 11.399882,19.604333 c -2.10662,-0.25047 -3.72562,-0.84042 -5.4710303,-1.99358 -1.87787,-1.24067 -3.78658,-3.22003 -5.01494997,-5.20057 l -0.28321,-0.45664 0.10811,-0.21148 C 1.1336217,10.969773 1.8181817,9.9408831 2.5183917,9.0674031 c 1.97317,-2.4614998 4.49262,-4.0977398 7.1819103,-4.6642598 0.93753,-0.19749 2.58539,-0.24965 3.53653,-0.11194 1.2369,0.17909 2.19787,0.48127 3.41956,1.0753 2.38245,1.15843 4.63623,3.2301698 6.42696,5.9078397 l 0.43565,0.65143 -0.28668,0.53718 c -0.66732,1.25043 -1.63592,2.54972 -2.67579,3.58936 -2.06676,2.06629 -4.42427,3.23727 -7.10551,3.52934 -0.51202,0.0558 -1.66557,0.0685 -2.05114,0.0227 z m 2.03478,-3.09151 c 2.35558,-0.52087 3.82253,-2.26732 3.82882,-4.55834 0.002,-0.70919 -0.0789,-1.17876 -0.30293,-1.76033 -0.53588,-1.3909299 -1.72011,-2.4111199 -3.27154,-2.8183999 -0.66614,-0.17488 -2.01592,-0.21853 -2.76088,-0.0893 -0.60758,0.1054 -1.38012,0.3803 -1.85393,0.65969 -0.43911,0.25893 -1.25595,1.07312 -1.5008,1.49594 -0.51034,0.8812999 -0.6954803,1.6451699 -0.6499603,2.6816999 0.0352,0.80092 0.1263,1.18909 0.4312703,1.83722 0.66778,1.41915 2.00702,2.35378 3.76256,2.6258 0.4772,0.0739 1.84602,0.0302 2.31739,-0.074 z"
       id="path476" />
    <path
       style="fill:#2c3333;fill-opacity:1;stroke-width:0.0565218"
       d="m 10.693362,19.473783 c -2.18618,-0.3705 -4.0956199,-1.26759 -5.9787703,-2.80894 -1.4226,-1.1644 -2.93117,-2.87704 -3.79732997,-4.31101 l -0.2522,-0.41752 0.21675,-0.4007 c 0.11920997,-0.22038 0.42800997,-0.71862 0.68623997,-1.10721 2.15172,-3.2380099 4.9798204,-5.3164997 8.1644403,-6.0003697 0.52937,-0.11367 0.75527,-0.12767 2.0913,-0.12959 1.35045,-0.002 1.55449,0.0103 2.07378,0.12515 1.36224,0.30111 2.98086,0.9965 4.20012,1.80445 1.79404,1.1888198 3.49744,2.9200298 4.91563,4.9958697 l 0.46897,0.68645 -0.0974,0.20575 c -0.22846,0.48254 -0.9025,1.55492 -1.37276,2.18402 -0.91291,1.22129 -1.85518,2.18002 -2.9818,3.0339 -1.4938,1.13218 -3.29992,1.88635 -5.17898,2.16258 -0.82331,0.12102 -2.37532,0.1098 -3.15796,-0.0228 z m 2.86878,-2.96544 c 1.25957,-0.31161 2.30985,-1.00686 2.95403,-1.95544 0.53522,-0.78816 0.75316,-1.55649 0.75308,-2.65493 -5e-5,-0.61378 -0.0245,-0.85151 -0.12523,-1.21522 -0.45375,-1.6390599 -1.69648,-2.8516699 -3.39917,-3.3167799 -0.43393,-0.11853 -0.59583,-0.13085 -1.69497,-0.12895 -1.16399,0.002 -1.23666,0.009 -1.72391,0.15842 -0.27978,0.086 -0.7249,0.26042 -0.98913,0.38765 -0.40877,0.19682 -0.56989,0.32073 -1.08016,0.83071 -0.54341,0.5431 -0.62674,0.65512 -0.88743,1.19286 -0.3921803,0.8089699 -0.4864703,1.3004399 -0.4494903,2.3428199 0.0324,0.91482 0.1603203,1.39157 0.5691303,2.12215 0.30543,0.54582 1.05683,1.3132 1.59685,1.63081 0.45277,0.26628 1.12809,0.52644 1.69956,0.65471 0.50358,0.11302 2.2465,0.0824 2.77684,-0.0488 z"
       id="path547" />
    <path
       style="fill:#2c3333;fill-opacity:1;stroke-width:0.0565218"
       d="m 11.340372,14.305613 c -0.99946,-0.31304 -1.84592,-1.24462 -1.99227,-2.1926 -0.15264,-0.9887 0.36074,-1.84853 1.4057,-2.3543099 0.89499,-0.43321 1.68403,-0.44302 2.54246,-0.0316 0.7812,0.3743899 1.39362,1.1765699 1.53692,2.0131899 0.19107,1.11545 -0.65983,2.20601 -1.9994,2.56255 -0.37094,0.0987 -1.18227,0.10026 -1.49341,0.003 z"
       id="path549" />
    <path
       style="fill:#2c3333;fill-opacity:1;stroke-width:0.00999169"
       d="m 0.71109173,12.141703 c -0.0426,-0.0728 -0.0844,-0.14457 -0.0928,-0.15947 -0.015,-0.0264 -0.0131,-0.0317 0.075,-0.20484 0.53390997,-1.04967 1.34931997,-2.2417199 2.19591997,-3.2102299 0.33354,-0.38157 0.91893,-0.98133 1.2396,-1.27004 1.3538,-1.2188498 2.7304,-2.0484898 4.2614703,-2.5682698 1.46952,-0.49889 3.05282,-0.67031 4.59618,-0.49761 2.28158,0.2553 4.49462,1.26493 6.55254,2.9893998 0.64945,0.54421 1.38143,1.264 1.98415,1.95112 0.52665,0.60039 1.0385,1.2623799 1.48708,1.9233099 0.20268,0.29861 0.49515,0.76506 0.48566,0.77455 -0.002,0.002 -0.12543,-0.17632 -0.27349,-0.39708 -0.68412,-1.01999 -1.20499,-1.7009299 -1.88216,-2.4605399 -0.43984,-0.4934 -1.04075,-1.0904 -1.53443,-1.52444 -0.96016,-0.8441898 -1.9859,-1.5439198 -3.02749,-2.0652798 -0.98319,-0.49213 -1.8477,-0.80447 -2.75886,-0.99674 -0.80973,-0.17086 -1.38163,-0.22371 -2.28696,-0.21135 -1.05293,0.0144 -1.78286,0.10236 -2.55012,0.3074 -2.3958003,0.64022 -4.5801303,2.07867 -6.3937303,4.2104398 -0.76702,0.90158 -1.58415,2.0989499 -2.05406997,3.0098999 l -0.10948,0.21222 0.0957,0.15404 c 0.0527,0.0847 0.0957,0.1567 0.0957,0.15996 0,0.004 -0.006,0.006 -0.014,0.006 -0.008,0 -0.0488,-0.0596 -0.0914,-0.13239 z"
       id="path551" />
    <path
       style="fill:#008000;stroke-width:0.0459865"
       d=""
       id="path553" />
    <path
       style="fill:#2c3333;fill-opacity:1;stroke-width:0.00249793"
       d="m 7.727652,5.8753233 6e-4,-0.85212 0.0287,-0.0122 c 0.0491,-0.0209 0.25504,-0.10292 0.32848,-0.13082 0.51886,-0.19708 1.04343,-0.35285 1.56869,-0.46579 0.132,-0.0284 0.24293,-0.0487 0.3797,-0.0697 0.95618,-0.14648 2.32601,-0.17197 3.15613,-0.0587 0.54397,0.0742 1.13166,0.19884 1.60242,0.33982 0.0206,0.006 0.0467,0.014 0.058,0.0174 l 0.0206,0.006 v 1.03906 1.03906 h -3.57204 -3.57205 z"
       id="path555" />
    <path
       style="fill:#2c3333;fill-opacity:1;stroke-width:0.00249793"
       d="m 7.727652,5.8752133 6e-4,-0.85223 0.0262,-0.011 c 0.37824,-0.15916 0.83337,-0.31814 1.24272,-0.43408 0.24963,-0.0707 0.55827,-0.14559 0.7756,-0.1882 0.85887,-0.16835 2.27707,-0.22387 3.22733,-0.12633 0.32552,0.0334 0.80436,0.11619 1.20775,0.20879 0.20483,0.047 0.46289,0.11559 0.63884,0.16976 l 0.0244,0.007 v 1.03902 1.03903 h -3.57198 -3.57204 z"
       id="path557" />
    <path
       style="fill:#2c3333;fill-opacity:1;stroke-width:0.00249793"
       d="m 7.727032,5.8755633 v -0.85189 l 0.0118,-0.005 c 0.0303,-0.0132 0.15913,-0.0655 0.2272,-0.0923 0.55165,-0.21688 1.11171,-0.38718 1.67435,-0.50913 0.33943,-0.0736 0.74144,-0.12772 1.19776,-0.16132 0.0288,-0.002 0.0676,-0.005 0.0862,-0.006 0.0519,-0.004 0.1902,-0.0119 0.27477,-0.0161 0.65031,-0.0321 1.30408,-0.0213 1.80101,0.0299 0.3304,0.034 0.80533,0.11615 1.20775,0.20883 0.21128,0.0487 0.51181,0.12866 0.64758,0.17239 l 0.0156,0.005 v 1.03894 1.03893 h -3.57204 -3.57203 z"
       id="path559" />
    <path
       style="fill:#2c3333;fill-opacity:1;stroke-width:0.00249793"
       d="m 11.001192,4.2401933 c 0.004,-5.5e-4 0.0118,-5.5e-4 0.0162,0 0.004,5.6e-4 6e-4,0.001 -0.008,0.001 -0.009,0 -0.0126,-4.5e-4 -0.008,-0.001 z"
       id="path561" />
    <path
       style="fill:#2c3333;fill-opacity:1;stroke-width:0.00249793"
       d="m 7.727642,4.9733133 c 0.002,-0.007 0.29449,-0.12078 0.479,-0.18675 0.95817,-0.3426 1.95178,-0.54557 2.96504,-0.60569 0.21283,-0.0126 0.33206,-0.0164 0.56578,-0.018 0.21033,-0.001 0.34633,6e-4 0.52207,0.008 0.10688,0.004 0.15169,0.007 0.25353,0.0137 0.7573,0.0506 1.50286,0.18166 2.23901,0.39371 0.0552,0.0159 0.10452,0.03 0.10967,0.0314 0.005,10e-4 0.009,0.004 0.009,0.005 0,10e-4 -10e-4,0.002 -0.003,10e-4 -0.0159,-0.006 -0.22564,-0.0655 -0.3228,-0.0914 -1.46755,-0.39158 -2.98107,-0.46414 -4.4853,-0.21501 -0.78241,0.12957 -1.52624,0.34041 -2.28987,0.64906 -0.0238,0.01 -0.0429,0.0162 -0.0423,0.0147 z"
       id="path563" />
    <path
       style="fill:#2c3333;fill-opacity:1;stroke-width:0.00249793"
       d="m 7.727652,5.8751133 6e-4,-0.85233 0.02,-0.008 c 0.48163,-0.20329 1.03595,-0.38791 1.55746,-0.51872 0.4434,-0.11121 0.75778,-0.16607 1.21649,-0.21227 0.45297,-0.0456 0.90473,-0.0672 1.40633,-0.0673 0.42109,-5e-5 0.73868,0.0138 1.06038,0.0461 0.3303,0.0332 0.81613,0.11694 1.22441,0.21097 0.19207,0.0442 0.48386,0.12174 0.62593,0.16625 l 0.0318,0.01 v 1.03903 1.03904 h -3.57205 -3.57203 z"
       id="path565" />
    <path
       style="fill:#2c3333;fill-opacity:1;stroke-width:0.00249793"
       d="m 7.727552,4.9972233 6e-4,-0.0192 0.0675,-0.0272 c 0.72003,-0.29002 1.42875,-0.49333 2.17444,-0.62381 0.89644,-0.15685 1.81258,-0.19855 2.71775,-0.12368 0.62264,0.0515 1.24417,0.15992 1.86142,0.32474 0.0752,0.0201 0.25311,0.0703 0.29991,0.0846 l 0.0219,0.007 v 0.012 0.012 l -0.0406,-0.0123 c -0.54842,-0.16594 -1.23175,-0.30704 -1.7754,-0.36661 -0.37114,-0.0406 -0.68623,-0.0545 -1.18152,-0.0518 -0.26149,10e-4 -0.34299,0.003 -0.55454,0.0105 -0.79434,0.0283 -1.42054,0.11244 -2.05705,0.27634 -0.48466,0.1248 -0.98305,0.29128 -1.46521,0.48943 -0.0365,0.015 -0.0672,0.0273 -0.0682,0.0273 -10e-4,0 -10e-4,-0.009 -10e-4,-0.0191 z"
       id="path567" />
    <path
       style="fill:#008000;stroke-width:0.735785"
       d=""
       id="path569" />
    <path
       style="fill:#008000;stroke-width:0.735785"
       d=""
       id="path573" />
  </g>
</svg>
